<?xml version="1.0" standalone="no"?>
<!DOCTYPE svg PUBLIC "-//W3C//DTD SVG 20010904//EN"
 "http://www.w3.org/TR/2001/REC-SVG-20010904/DTD/svg10.dtd">
<svg version="1.0" xmlns="http://www.w3.org/2000/svg"
 width="500.000000pt" height="169.000000pt" viewBox="0 0 500.000000 169.000000"
 preserveAspectRatio="xMidYMid meet">

<g transform="translate(0.000000,169.000000) scale(0.100000,-0.100000)"
fill="#000000" stroke="none">
<path d="M454 1625 c-111 -71 -224 -169 -263 -230 -14 -22 -42 -60 -62 -85
-67 -84 -120 -174 -117 -200 4 -30 40 -38 78 -15 60 35 204 105 216 105 11 0
14 -22 14 -97 0 -123 17 -187 51 -191 13 -1 35 4 49 13 60 35 204 105 216 105
11 0 14 -23 15 -102 3 -262 8 -517 14 -671 7 -184 6 -181 76 -224 33 -21 45
-22 419 -25 381 -2 491 4 613 34 29 7 47 17 47 26 0 11 -8 13 -32 7 -18 -4
-98 -15 -178 -24 -116 -14 -213 -17 -479 -15 -320 3 -335 3 -362 23 -16 12
-32 21 -37 21 -20 0 -36 33 -38 78 -6 120 -14 595 -15 856 -1 246 1 291 14
304 20 19 100 32 142 22 18 -4 113 -3 211 3 218 14 486 15 614 3 52 -4 112 -8
132 -7 20 1 40 -4 44 -10 30 -48 47 -622 25 -814 -17 -144 -25 -465 -11 -465
15 0 300 289 300 304 0 7 27 18 60 25 37 8 60 19 60 27 0 8 12 17 28 20 15 4
34 16 43 27 16 19 16 19 23 -14 8 -34 8 -34 17 -9 6 14 13 55 16 92 l6 67 -50
-16 c-60 -19 -95 -12 -129 24 -29 31 -30 70 -5 100 25 30 91 31 132 2 33 -23
34 -21 15 66 -12 53 -15 57 -23 36 -9 -23 -10 -23 -28 -5 -14 15 -37 20 -102
23 l-83 3 0 99 0 99 25 -16 c34 -22 54 -13 173 75 97 71 103 78 97 105 -7 40
-25 58 -103 103 -37 21 -94 64 -127 96 -33 32 -72 63 -87 70 -16 6 -28 15 -28
19 0 24 -60 33 -280 43 -232 10 -234 10 -175 24 33 7 73 22 89 33 l28 20 37
-36 c29 -29 45 -36 75 -36 l38 0 -33 39 c-19 21 -51 47 -71 57 -21 11 -38 23
-38 27 0 4 -17 15 -37 24 -33 14 -107 17 -599 19 l-560 2 -100 -63z m936 20
c294 -29 288 -28 265 -10 -19 16 -19 16 9 13 29 -3 50 -28 24 -28 -7 0 -29
-13 -48 -28 -39 -31 -87 -53 -116 -53 -37 1 -190 10 -309 20 -66 5 -158 7
-205 4 -100 -6 -100 -6 -255 0 -79 3 -145 0 -193 -9 -41 -8 -95 -14 -120 -14
l-47 0 35 22 c19 11 58 35 86 53 28 18 59 34 69 36 61 12 666 7 805 -6z m-581
-99 c-2 -2 -62 -6 -134 -9 -72 -3 -114 -2 -95 3 36 8 237 13 229 6z m118 -22
c-3 -3 -12 -4 -19 -1 -8 3 -5 6 6 6 11 1 17 -2 13 -5z m301 0 c-12 -11 -173
-15 -233 -6 -53 8 -41 10 89 11 82 0 147 -2 144 -5z m-603 -16 c66 1 152 4
190 7 l70 6 -100 -65 c-118 -76 -225 -171 -271 -241 -19 -27 -53 -75 -76 -107
-24 -31 -53 -71 -65 -89 l-23 -34 -2 130 c-2 242 3 359 18 374 16 17 90 31
119 23 11 -4 74 -5 140 -4z m-309 -130 l-2 -113 -75 -40 c-42 -22 -99 -55
-127 -73 -28 -19 -56 -32 -62 -30 -13 4 61 126 125 205 111 139 130 163 136
163 4 0 6 -51 5 -112z m1404 97 c294 -29 288 -28 265 -10 -19 16 -19 16 9 13
29 -3 50 -28 24 -28 -7 0 -29 -13 -48 -28 -39 -31 -87 -53 -116 -53 -37 1
-190 10 -309 20 -66 5 -158 7 -205 4 -100 -6 -100 -6 -255 0 -79 3 -145 0
-193 -9 -41 -8 -95 -14 -120 -14 l-47 0 35 22 c19 11 58 35 86 53 28 18 59 34
69 36 61 12 666 7 805 -6z m404 -105 c26 -27 73 -64 104 -81 31 -18 83 -50
115 -72 l59 -39 -42 -35 c-23 -20 -58 -47 -77 -60 -20 -13 -42 -31 -50 -39
-26 -26 -61 -17 -79 21 -9 19 -32 47 -52 62 -53 40 -171 153 -194 186 l-20 27
44 20 c24 11 53 20 64 20 12 0 32 9 45 20 13 10 26 19 30 20 3 0 26 -22 53
-50z m-985 6 c-2 -2 -62 -6 -134 -9 -72 -3 -114 -2 -95 3 36 8 237 13 229 6z
m-493 -168 l-2 -113 -75 -40 c-42 -22 -99 -55 -127 -73 -28 -19 -56 -32 -62
-30 -13 4 61 126 125 205 111 139 130 163 136 163 4 0 6 -51 5 -112z m1345
-36 c9 -4 38 -34 64 -67 44 -57 47 -63 42 -110 -3 -27 -2 -80 2 -117 6 -55 4
-68 -7 -68 -18 0 -86 -72 -106 -112 -21 -41 -21 -155 -1 -196 20 -39 88 -109
111 -114 11 -2 20 -10 22 -18 3 -20 -213 -243 -230 -237 -8 2 -12 18 -11 38
25 526 27 825 7 1049 l-6 65 48 -53 c26 -30 55 -57 65 -60z"/>
<path d="M326 773 c7 -402 14 -513 33 -532 48 -48 83 -59 194 -63 91 -3 107
-1 107 12 0 13 -17 16 -97 18 -79 2 -103 6 -125 22 -15 11 -31 20 -36 20 -20
0 -36 33 -38 78 -1 26 -5 165 -8 308 -5 195 -10 269 -20 289 -12 23 -13 5 -10
-152z"/>
<path d="M2540 813 c-14 -3 -28 -10 -31 -15 -4 -6 -29 -16 -55 -24 -44 -11
-46 -13 -16 -13 l32 -1 0 -171 c0 -177 -2 -186 -44 -202 -39 -15 -3 -19 106
-11 62 4 104 10 94 12 -11 2 -26 11 -34 19 -16 15 -15 25 23 288 8 55 15 106
15 113 0 12 -39 14 -90 5z"/>
<path d="M3720 813 c8 -3 20 -12 27 -19 13 -13 42 -142 63 -278 10 -69 10 -80
-4 -88 -8 -5 -21 -14 -28 -22 -8 -7 -23 -16 -35 -20 -20 -6 -22 -2 -28 59 -4
36 -11 65 -16 65 -5 0 -9 -6 -9 -13 0 -7 -16 -19 -35 -27 -19 -8 -35 -17 -35
-22 0 -4 -11 -8 -25 -8 -14 0 -25 4 -25 9 0 5 -10 12 -22 16 -19 6 -14 9 26
15 27 5 52 13 55 17 3 5 18 16 34 26 23 15 27 24 27 61 0 84 -79 129 -195 112
-25 -4 -45 -11 -45 -15 0 -5 -8 -11 -18 -13 -26 -7 -62 -86 -62 -133 0 -39 19
-105 30 -105 3 0 15 -8 26 -19 33 -30 60 -41 104 -41 42 0 120 20 120 31 0 4
8 10 17 13 11 5 24 -2 39 -21 l22 -27 109 12 c60 7 123 12 141 12 18 0 32 5
32 10 0 6 11 10 24 10 14 0 28 5 31 10 3 6 20 10 36 10 22 0 32 6 39 24 5 13
14 27 19 31 17 10 14 92 -4 99 -8 3 -15 12 -15 20 0 16 -21 26 -58 26 l-26 0
34 30 c18 17 37 30 42 30 4 0 8 16 8 35 0 29 -5 37 -32 51 -18 9 -35 20 -38
25 -3 5 -87 11 -185 14 -99 3 -173 2 -165 -2z m210 -63 c0 -5 11 -10 25 -10
14 0 25 -2 25 -4 0 -2 3 -12 6 -20 4 -12 -4 -20 -30 -31 -19 -8 -38 -15 -41
-15 -3 0 -5 20 -5 45 0 25 5 45 10 45 6 0 10 -4 10 -10z m-400 -129 c0 -36 -3
-40 -30 -46 -16 -3 -36 -3 -43 2 -22 12 -3 51 28 59 14 3 25 10 25 15 0 5 5 9
10 9 6 0 10 -18 10 -39z m450 -66 c0 -14 -3 -25 -7 -25 -5 0 -21 -11 -37 -25
-16 -14 -31 -23 -33 -21 -3 2 -1 25 2 50 7 44 9 46 41 46 30 0 34 -3 34 -25z"/>
<path d="M2760 691 c-31 -7 -70 -33 -70 -45 0 -5 -7 -14 -15 -20 -8 -6 -20
-31 -26 -56 -10 -40 -10 -51 7 -85 21 -45 59 -85 98 -103 32 -15 102 -16 111
-2 3 6 15 10 25 10 10 0 22 9 25 20 3 11 10 20 15 20 14 0 50 85 50 117 0 15
-7 39 -15 53 -8 14 -19 35 -25 48 -18 42 -104 62 -180 43z m54 -83 c-9 -28
-28 -48 -47 -48 -30 0 -47 13 -47 36 0 19 7 24 36 30 19 4 38 13 41 21 10 25
26 -13 17 -39z"/>
<path d="M4300 691 c-38 -12 -70 -34 -70 -48 0 -7 -4 -13 -8 -13 -4 0 -13 -21
-20 -46 -10 -37 -10 -57 0 -100 7 -30 18 -54 25 -54 6 0 18 -8 25 -18 17 -23
62 -42 100 -42 43 0 98 21 98 37 0 8 11 18 24 23 29 11 52 91 41 147 -17 94
-113 145 -215 114z m60 -69 c0 -48 -34 -73 -74 -54 -37 16 -24 49 25 62 22 6
39 15 39 20 0 6 2 10 5 10 3 0 5 -17 5 -38z"/>
<path d="M3006 681 c-19 -7 -19 -8 3 -14 22 -5 22 -7 16 -129 -5 -80 -12 -131
-22 -146 l-14 -23 48 6 c108 14 103 11 96 60 -6 48 10 75 45 75 39 0 51 -87
18 -129 -9 -12 -5 -13 29 -8 22 4 58 7 80 8 22 0 33 3 25 6 -28 11 -40 29 -27
42 27 27 51 201 27 201 -5 0 -10 9 -10 20 0 60 -138 53 -187 -10 -10 -12 -11
-9 -3 18 l9 32 -57 -1 c-31 0 -66 -4 -76 -8z"/>
<path d="M4600 683 c-44 -4 -83 -23 -47 -23 9 0 17 -6 17 -13 0 -7 9 -18 20
-25 11 -7 20 -18 20 -25 0 -7 10 -17 22 -22 34 -15 32 -37 -4 -74 -17 -18 -37
-42 -43 -54 -6 -12 -20 -26 -33 -32 -31 -14 -27 -21 16 -29 44 -7 163 -7 145
1 -18 7 -16 38 4 76 l16 32 14 -32 c7 -18 18 -33 23 -33 19 0 10 -37 -12 -49
-20 -10 -15 -11 27 -6 28 3 87 9 133 12 45 3 82 9 82 12 0 3 -12 12 -27 18
-16 7 -47 37 -70 67 -43 54 -55 96 -29 96 7 0 16 9 19 20 3 11 16 24 30 29 13
5 27 17 30 25 4 9 17 17 29 17 46 2 -59 18 -125 18 -64 1 -67 0 -55 -19 11
-16 9 -23 -10 -40 -12 -11 -22 -26 -22 -33 0 -7 -7 1 -15 17 -18 35 -19 63 -2
69 14 6 -84 6 -153 0z"/>
</g>
</svg>
