<?xml version="1.0" standalone="no"?>
<!DOCTYPE svg PUBLIC "-//W3C//DTD SVG 20010904//EN"
 "http://www.w3.org/TR/2001/REC-SVG-20010904/DTD/svg10.dtd">
<svg version="1.0" xmlns="http://www.w3.org/2000/svg"
 width="939.000000pt" height="440.000000pt" viewBox="0 0 939.000000 440.000000"
 preserveAspectRatio="xMidYMid meet">
<g transform="translate(0.000000,440.000000) scale(0.100000,-0.100000)"
fill="#000000" stroke="none">
<path d="M945 4219 c-473 -93 -870 -174 -881 -180 -23 -12 -44 -49 -44 -78 0
-10 9 -30 20 -44 11 -14 184 -160 384 -326 201 -166 367 -305 370 -309 2 -4
-133 -158 -301 -342 -168 -184 -309 -343 -314 -352 -15 -29 -10 -66 13 -92 14
-14 74 -44 153 -74 72 -28 212 -82 312 -122 l182 -71 3 -359 c3 -344 4 -360
23 -379 13 -13 242 -93 637 -221 l617 -201 852 200 c678 159 857 204 873 221
21 20 21 30 24 473 l3 452 371 87 c224 53 378 94 389 104 28 25 34 70 12 104
-10 16 -174 151 -366 300 l-348 271 178 117 c98 65 236 155 306 201 70 46 132
92 137 102 17 31 11 79 -12 102 -18 18 -155 58 -653 190 -346 92 -644 167
-661 167 -22 0 -109 -49 -320 -182 -159 -100 -297 -182 -306 -182 -9 -1 -175
130 -368 289 -193 160 -359 293 -368 297 -10 4 -26 6 -37 6 -11 0 -407 -76
-880 -169z m1155 -254 c231 -190 287 -241 273 -247 -16 -7 -1362 -323 -1406
-330 -11 -2 -138 96 -339 262 -228 188 -316 266 -302 268 10 2 345 68 744 147
399 78 728 142 732 141 4 0 138 -109 298 -241z m1650 -116 c272 -72 498 -134
502 -138 6 -6 -479 -327 -491 -325 -34 8 -948 308 -954 314 -8 7 419 280 438
280 6 0 233 -59 505 -131z m319 -899 c231 -180 297 -237 283 -242 -27 -11
-1388 -328 -1407 -328 -9 0 -145 100 -302 223 -156 122 -291 228 -300 234 -9
7 -14 15 -12 17 9 9 1394 334 1416 333 12 -1 157 -108 322 -237z m-2612 74
c263 -86 484 -159 492 -164 10 -5 -63 -91 -259 -306 -150 -164 -283 -310 -295
-323 l-23 -23 -478 187 c-264 103 -481 189 -482 190 -2 2 45 57 105 122 60 65
182 198 272 296 89 97 168 177 176 177 7 0 229 -70 492 -156z m1099 -578 c185
-145 342 -262 348 -260 6 2 178 42 381 89 204 47 378 88 388 91 16 5 17 -17
17 -370 l0 -375 -37 -10 c-21 -6 -346 -82 -723 -171 -377 -88 -693 -163 -702
-166 -17 -5 -18 34 -18 715 0 397 2 721 4 721 2 0 156 -119 342 -264z m-528
-820 l-3 -344 -498 163 c-274 89 -500 165 -503 167 -2 3 -3 126 -2 275 l3 269
175 -68 c176 -68 207 -76 239 -59 9 5 145 150 302 322 l284 311 3 -346 c1
-190 1 -501 0 -690z"/>
<path d="M2945 1846 l-560 -132 -3 -117 -3 -118 23 6 c13 3 268 63 568 134
l545 128 6 39 c7 44 0 194 -10 193 -3 0 -258 -60 -566 -133z"/>
<path d="M5905 4085 c-341 -67 -731 -144 -867 -170 -278 -54 -288 -58 -288
-128 0 -54 -16 -39 417 -396 188 -155 344 -285 347 -289 2 -4 -133 -158 -301
-342 -168 -184 -309 -343 -314 -352 -15 -29 -10 -66 14 -92 13 -14 73 -44 152
-74 72 -28 212 -82 312 -122 l182 -71 3 -359 c3 -344 4 -360 23 -379 13 -13
242 -93 637 -221 l617 -201 852 200 c678 159 857 204 873 221 21 20 21 30 24
473 l3 452 371 87 c224 53 378 94 389 104 28 25 34 70 12 104 -10 16 -174 151
-366 300 l-348 271 178 117 c98 65 236 155 306 201 70 46 132 92 137 102 17
31 11 79 -12 102 -18 18 -155 58 -653 190 -346 92 -644 167 -661 167 -22 0
-109 -49 -320 -182 -159 -100 -297 -182 -306 -182 -9 -1 -175 130 -368 289
-193 160 -359 293 -368 297 -10 4 -26 6 -37 6 -11 0 -299 -55 -640 -123z m915
-300 c231 -190 287 -241 273 -247 -16 -7 -1362 -323 -1406 -330 -11 -2 -138
96 -339 262 -228 188 -316 266 -302 268 10 2 345 68 744 147 399 78 728 142
732 141 4 0 138 -109 298 -241z m1650 -116 c272 -72 498 -134 502 -138 6 -6
-479 -327 -491 -325 -34 8 -948 308 -954 314 -8 7 419 280 438 280 6 0 233
-59 505 -131z m319 -899 c231 -180 297 -237 283 -242 -27 -11 -1388 -328
-1407 -328 -9 0 -145 100 -302 223 -156 122 -291 228 -300 234 -9 7 -14 15
-12 17 9 9 1394 334 1416 333 12 -1 157 -108 322 -237z m-2612 74 c263 -86
484 -159 492 -164 10 -5 -63 -91 -259 -306 -150 -164 -283 -310 -295 -323
l-23 -23 -478 187 c-264 103 -481 189 -482 190 -2 2 45 57 105 122 60 65 182
198 272 296 89 97 168 177 176 177 7 0 229 -70 492 -156z m1099 -578 c185
-145 342 -262 348 -260 6 2 178 42 381 89 204 47 378 88 388 91 16 5 17 -17
17 -370 l0 -375 -37 -10 c-21 -6 -346 -82 -723 -171 -377 -88 -693 -163 -702
-166 -17 -5 -18 34 -18 715 0 397 2 721 4 721 2 0 156 -119 342 -264z m-528
-820 l-3 -344 -498 163 c-274 89 -500 165 -503 167 -2 3 -3 126 -2 275 l3 269
175 -68 c176 -68 207 -76 239 -59 9 5 145 150 302 322 l284 311 3 -346 c1
-190 1 -501 0 -690z"/>
<path d="M7665 1666 l-560 -132 -3 -117 -3 -118 23 6 c13 3 268 63 568 134
l545 128 6 39 c7 44 0 194 -10 193 -3 0 -258 -60 -566 -133z"/>
<path d="M1346 629 c-15 -21 -15 -21 -102 -4 -260 52 -453 -88 -430 -311 17
-163 88 -246 234 -275 179 -34 332 50 332 182 0 43 -18 33 -55 -29 -55 -93
-105 -107 -140 -37 -17 35 -20 61 -20 195 0 165 10 211 49 218 49 10 106 -64
106 -137 0 -89 41 -24 61 97 17 102 0 151 -35 101z"/>
<path d="M1602 622 c-7 -20 4 -25 66 -30 31 -2 62 -8 68 -13 7 -6 11 -84 10
-241 l-1 -232 -25 -13 c-14 -7 -47 -13 -73 -13 -34 0 -49 -5 -54 -15 -3 -9 -3
-18 0 -21 3 -3 174 -6 379 -7 l373 -1 12 59 c24 121 26 172 8 179 -11 4 -21
-4 -33 -26 -21 -40 -49 -67 -118 -114 -44 -30 -64 -38 -102 -38 l-47 -1 3 125
c2 69 5 179 5 245 l2 120 55 8 c90 14 102 17 97 30 -6 18 -617 17 -625 -1z"/>
<path d="M2820 629 c-114 -20 -209 -82 -253 -164 -30 -56 -30 -181 0 -246 63
-139 228 -208 438 -181 115 15 189 41 244 88 73 63 101 145 87 258 -13 104
-101 196 -219 231 -65 20 -224 27 -297 14z m163 -57 c28 -31 39 -115 35 -270
-3 -152 -13 -193 -50 -216 -26 -16 -50 3 -67 50 -19 54 -27 286 -12 354 20 93
56 124 94 82z"/>
<path d="M3534 625 c-16 -13 -17 -16 -4 -25 8 -5 36 -10 61 -10 34 0 51 -6 65
-21 17 -19 19 -39 19 -235 0 -161 -3 -216 -13 -226 -7 -7 -34 -20 -60 -28 -28
-9 -47 -21 -47 -30 0 -12 26 -15 168 -15 93 0 174 3 180 7 16 10 -9 36 -43 43
-40 9 -77 40 -99 83 -20 40 -34 119 -22 127 4 2 80 -54 169 -125 182 -145 216
-167 237 -150 21 17 25 66 29 315 l4 230 24 7 c12 4 39 11 58 15 25 6 35 14
35 28 0 19 -7 20 -165 17 -91 -2 -169 -8 -175 -14 -13 -12 20 -38 48 -38 42 0
125 -116 100 -141 -4 -4 -53 31 -108 78 -150 128 -137 123 -301 123 -108 0
-145 -3 -160 -15z"/>
<path d="M4426 631 c-13 -20 3 -29 60 -36 98 -13 96 -6 99 -268 1 -158 -1
-230 -9 -235 -6 -4 -38 -9 -71 -12 -51 -4 -60 -8 -60 -25 0 -19 9 -19 355 -20
195 0 362 3 371 7 18 8 40 96 42 173 2 59 -21 75 -39 27 -22 -57 -192 -168
-246 -160 -18 2 -23 9 -22 31 0 15 1 72 2 127 2 112 9 122 63 99 37 -15 69
-62 69 -101 0 -16 5 -28 10 -28 14 0 26 34 34 95 10 75 -3 88 -95 89 l-74 1
-3 89 -3 89 55 -6 c89 -9 166 -66 166 -122 0 -26 33 -14 41 15 4 14 7 55 8 91
1 94 1 94 -163 79 -131 -13 -496 -9 -557 6 -15 3 -30 1 -33 -5z"/>
<path d="M5487 630 c-100 -13 -105 -50 -8 -50 35 0 63 -5 69 -12 7 -9 8 -91 4
-248 l-7 -235 -60 -5 c-46 -4 -61 -9 -63 -22 -5 -26 39 -30 324 -26 l259 3 53
29 c61 34 87 66 97 116 9 47 -8 87 -57 137 l-41 41 22 35 c30 49 29 116 -4
156 -51 60 -196 92 -408 90 -67 -1 -148 -5 -180 -9z m443 -76 c39 -23 60 -65
60 -118 0 -51 -16 -66 -69 -66 -37 0 -47 16 -56 97 -11 100 5 122 65 87z m44
-255 c52 -41 70 -108 44 -164 -23 -51 -117 -75 -138 -36 -14 28 -13 194 2 209
18 18 62 14 92 -9z"/>
<path d="M6620 629 c-113 -19 -209 -81 -253 -164 -30 -56 -30 -181 0 -246 63
-139 228 -208 438 -181 118 15 191 42 248 93 106 92 116 276 22 387 -83 97
-267 142 -455 111z m163 -57 c28 -31 39 -115 35 -270 -3 -152 -13 -193 -50
-216 -26 -16 -50 3 -67 50 -19 54 -27 286 -12 354 20 93 56 124 94 82z"/>
<path d="M7334 628 c-4 -6 -3 -13 2 -15 75 -27 82 -36 174 -196 50 -87 88
-163 85 -167 -13 -22 -208 -160 -224 -160 -26 0 -66 -34 -57 -48 11 -18 280
-16 295 1 13 16 -4 37 -30 37 -37 0 -40 25 -10 68 49 66 89 63 127 -10 19 -37
18 -46 -8 -54 -32 -9 -48 -23 -42 -37 6 -18 546 -15 552 3 6 16 -11 26 -74 45
-48 14 -52 18 -94 92 -24 43 -63 111 -88 152 -35 56 -43 78 -35 90 22 36 175
144 221 155 36 9 47 17 47 32 0 18 -8 19 -150 19 -127 0 -150 -2 -150 -15 0
-8 10 -16 23 -18 13 -2 26 -10 29 -18 7 -18 -44 -94 -63 -94 -16 0 -64 61 -64
82 0 8 12 20 26 27 14 6 24 17 21 24 -5 17 -502 23 -513 5z"/>
</g>
</svg>
